# xmcd
#
# Track frame offsets:
#	182
#	17735
#	31027
#	44615
#	58522
#	80102
#	91480
#	105165
#	118237
#	149635
#
# Disc length: 2203
#
# Revision: 4
# Processed by: cddbd v1.5.1PL0 Copyright (c) Steve Scherf et al.
# Submitted via: Media_Universe 3.0
# Normalized: r3:TDELIM( - )
#
DISCID=8408990a
DTITLE=Various Artist - Motown Anthology Volume 7
DYEAR=2001
DGENRE=MOTOWN
TTITLE0=The Temptations - Just My Imagination (Running Away With Me)
TTITLE1=The Originals - The Bells
TTITLE2=Diana Ross and The Supeemes - Stoned Love
TTITLE3=Jackson 5, The - The Love You Save
TTITLE4=Rare Earth - Hey Big Brother
TTITLE5=Marvin Gaye - Mercy Mercy Me (The Ecology)
TTITLE6=Jackson 5, The - Never Can Say Goodbye
TTITLE7=Stevie Wonder - My Cherie Amour
TTITLE8=Temptations, The - Papa Was A Rollin' Stone
TTITLE9=Diana Ross - Touch Me In The Morning
EXTD=YEAR: 2001  ID3G:   0
EXTT0=
EXTT1=
EXTT2=
EXTT3=
EXTT4=
EXTT5=
EXTT6=
EXTT7=
EXTT8=
EXTT9=
PLAYORDER=
